<mxfile host="Electron" agent="Mozilla/5.0 (Macintosh; Intel Mac OS X 10_15_7) AppleWebKit/537.36 (KHTML, like Gecko) draw.io/26.1.1 Chrome/132.0.6834.210 Electron/34.3.3 Safari/537.36" version="26.1.1">
  <diagram id="BoP0I0QNcQ2qFQrXGGj0" name="Page-1">
    <mxGraphModel dx="1114" dy="999" grid="1" gridSize="10" guides="1" tooltips="1" connect="1" arrows="1" fold="1" page="1" pageScale="1" pageWidth="850" pageHeight="1100" math="0" shadow="0">
      <root>
        <mxCell id="0" />
        <mxCell id="1" parent="0" />
        <mxCell id="2" value="The Zen of Python" style="rounded=1;whiteSpace=wrap;html=1;fontSize=18;fillColor=#dae8fc;strokeColor=#6c8ebf;fontStyle=1" parent="1" vertex="1">
          <mxGeometry x="310" y="80" width="220" height="60" as="geometry" />
        </mxCell>
        <mxCell id="3" value="可读性重于一切&lt;br&gt;Readability counts" style="ellipse;whiteSpace=wrap;html=1;fillColor=#d5e8d4;strokeColor=#82b366;fontSize=14;" parent="1" vertex="1">
          <mxGeometry x="120" y="190" width="170" height="80" as="geometry" />
        </mxCell>
        <mxCell id="4" value="简单胜于复杂&lt;br&gt;Simple is better than complex" style="ellipse;whiteSpace=wrap;html=1;fillColor=#d5e8d4;strokeColor=#82b366;fontSize=14;" parent="1" vertex="1">
          <mxGeometry x="335" y="190" width="170" height="80" as="geometry" />
        </mxCell>
        <mxCell id="5" value="明确胜于隐晦&lt;br&gt;Explicit is better than implicit" style="ellipse;whiteSpace=wrap;html=1;fillColor=#d5e8d4;strokeColor=#82b366;fontSize=14;" parent="1" vertex="1">
          <mxGeometry x="550" y="190" width="170" height="80" as="geometry" />
        </mxCell>
        <mxCell id="6" value="扁平胜于嵌套&lt;br&gt;Flat is better than nested" style="ellipse;whiteSpace=wrap;html=1;fillColor=#fff2cc;strokeColor=#d6b656;fontSize=14;" parent="1" vertex="1">
          <mxGeometry x="120" y="310" width="170" height="80" as="geometry" />
        </mxCell>
        <mxCell id="7" value="特例不能破坏规则&lt;br&gt;Special cases aren&#39;t special enough" style="ellipse;whiteSpace=wrap;html=1;fillColor=#fff2cc;strokeColor=#d6b656;fontSize=14;" parent="1" vertex="1">
          <mxGeometry x="335" y="310" width="170" height="80" as="geometry" />
        </mxCell>
        <mxCell id="8" value="实用性胜于纯粹性&lt;br&gt;Practicality beats purity" style="ellipse;whiteSpace=wrap;html=1;fillColor=#fff2cc;strokeColor=#d6b656;fontSize=14;" parent="1" vertex="1">
          <mxGeometry x="550" y="310" width="170" height="80" as="geometry" />
        </mxCell>
        <mxCell id="9" value="做一件事应该只有一种方法&lt;br&gt;There should be one obvious way to do it" style="ellipse;whiteSpace=wrap;html=1;fillColor=#ffe6cc;strokeColor=#d79b00;fontSize=14;" parent="1" vertex="1">
          <mxGeometry x="230" y="430" width="170" height="80" as="geometry" />
        </mxCell>
        <mxCell id="10" value="优雅胜于丑陋&lt;br&gt;Beautiful is better than ugly" style="ellipse;whiteSpace=wrap;html=1;fillColor=#ffe6cc;strokeColor=#d79b00;fontSize=14;" parent="1" vertex="1">
          <mxGeometry x="450" y="430" width="170" height="80" as="geometry" />
        </mxCell>
        <mxCell id="11" value="核心原则" style="text;html=1;strokeColor=none;fillColor=none;align=center;verticalAlign=middle;whiteSpace=wrap;rounded=0;fontSize=14;fontStyle=1" parent="1" vertex="1">
          <mxGeometry x="160" y="160" width="80" height="30" as="geometry" />
        </mxCell>
        <mxCell id="12" value="代码风格原则" style="text;html=1;strokeColor=none;fillColor=none;align=center;verticalAlign=middle;whiteSpace=wrap;rounded=0;fontSize=14;fontStyle=1" parent="1" vertex="1">
          <mxGeometry x="150" y="280" width="110" height="30" as="geometry" />
        </mxCell>
        <mxCell id="13" value="设计理念" style="text;html=1;strokeColor=none;fillColor=none;align=center;verticalAlign=middle;whiteSpace=wrap;rounded=0;fontSize=14;fontStyle=1" parent="1" vertex="1">
          <mxGeometry x="280" y="400" width="80" height="30" as="geometry" />
        </mxCell>
        <mxCell id="14" value="" style="endArrow=classic;html=1;exitX=0.5;exitY=1;exitDx=0;exitDy=0;entryX=0.5;entryY=0;entryDx=0;entryDy=0;" parent="1" source="2" target="3" edge="1">
          <mxGeometry width="50" height="50" relative="1" as="geometry">
            <mxPoint x="400" y="330" as="sourcePoint" />
            <mxPoint x="450" y="280" as="targetPoint" />
          </mxGeometry>
        </mxCell>
        <mxCell id="15" value="" style="endArrow=classic;html=1;exitX=0.5;exitY=1;exitDx=0;exitDy=0;entryX=0.5;entryY=0;entryDx=0;entryDy=0;" parent="1" source="2" target="4" edge="1">
          <mxGeometry width="50" height="50" relative="1" as="geometry">
            <mxPoint x="430" y="150" as="sourcePoint" />
            <mxPoint x="215" y="200" as="targetPoint" />
          </mxGeometry>
        </mxCell>
        <mxCell id="16" value="" style="endArrow=classic;html=1;exitX=0.5;exitY=1;exitDx=0;exitDy=0;entryX=0.5;entryY=0;entryDx=0;entryDy=0;" parent="1" source="2" target="5" edge="1">
          <mxGeometry width="50" height="50" relative="1" as="geometry">
            <mxPoint x="430" y="150" as="sourcePoint" />
            <mxPoint x="430" y="200" as="targetPoint" />
          </mxGeometry>
        </mxCell>
        <mxCell id="17" value="" style="endArrow=classic;html=1;exitX=0.5;exitY=1;exitDx=0;exitDy=0;entryX=0.5;entryY=0;entryDx=0;entryDy=0;" parent="1" source="3" target="6" edge="1">
          <mxGeometry width="50" height="50" relative="1" as="geometry">
            <mxPoint x="430" y="150" as="sourcePoint" />
            <mxPoint x="645" y="200" as="targetPoint" />
          </mxGeometry>
        </mxCell>
        <mxCell id="18" value="" style="endArrow=classic;html=1;exitX=0.5;exitY=1;exitDx=0;exitDy=0;entryX=0.5;entryY=0;entryDx=0;entryDy=0;" parent="1" source="4" target="7" edge="1">
          <mxGeometry width="50" height="50" relative="1" as="geometry">
            <mxPoint x="215" y="280" as="sourcePoint" />
            <mxPoint x="215" y="320" as="targetPoint" />
          </mxGeometry>
        </mxCell>
        <mxCell id="19" value="" style="endArrow=classic;html=1;exitX=0.5;exitY=1;exitDx=0;exitDy=0;entryX=0.5;entryY=0;entryDx=0;entryDy=0;" parent="1" source="5" target="8" edge="1">
          <mxGeometry width="50" height="50" relative="1" as="geometry">
            <mxPoint x="430" y="280" as="sourcePoint" />
            <mxPoint x="430" y="320" as="targetPoint" />
          </mxGeometry>
        </mxCell>
        <mxCell id="20" value="" style="endArrow=classic;html=1;exitX=0.5;exitY=1;exitDx=0;exitDy=0;entryX=0.5;entryY=0;entryDx=0;entryDy=0;" parent="1" source="6" target="9" edge="1">
          <mxGeometry width="50" height="50" relative="1" as="geometry">
            <mxPoint x="645" y="280" as="sourcePoint" />
            <mxPoint x="645" y="320" as="targetPoint" />
          </mxGeometry>
        </mxCell>
        <mxCell id="21" value="" style="endArrow=classic;html=1;exitX=0.5;exitY=1;exitDx=0;exitDy=0;entryX=0.5;entryY=0;entryDx=0;entryDy=0;" parent="1" source="8" target="10" edge="1">
          <mxGeometry width="50" height="50" relative="1" as="geometry">
            <mxPoint x="215" y="400" as="sourcePoint" />
            <mxPoint x="325" y="440" as="targetPoint" />
          </mxGeometry>
        </mxCell>
        <mxCell id="22" value="" style="endArrow=classic;html=1;exitX=0.5;exitY=1;exitDx=0;exitDy=0;entryX=0.5;entryY=0;entryDx=0;entryDy=0;" parent="1" source="7" target="9" edge="1">
          <mxGeometry width="50" height="50" relative="1" as="geometry">
            <mxPoint x="645" y="400" as="sourcePoint" />
            <mxPoint x="535" y="440" as="targetPoint" />
          </mxGeometry>
        </mxCell>
        <mxCell id="23" value="" style="endArrow=classic;html=1;exitX=0.5;exitY=1;exitDx=0;exitDy=0;entryX=0.5;entryY=0;entryDx=0;entryDy=0;" parent="1" source="7" target="10" edge="1">
          <mxGeometry width="50" height="50" relative="1" as="geometry">
            <mxPoint x="430" y="400" as="sourcePoint" />
            <mxPoint x="325" y="440" as="targetPoint" />
          </mxGeometry>
        </mxCell>
      </root>
    </mxGraphModel>
  </diagram>
</mxfile>
